<?xml version="1.0" standalone="no"?>
<!DOCTYPE svg PUBLIC "-//W3C//DTD SVG 20010904//EN"
 "http://www.w3.org/TR/2001/REC-SVG-20010904/DTD/svg10.dtd">
<svg version="1.0" xmlns="http://www.w3.org/2000/svg"
 width="460.000000pt" height="460.000000pt" viewBox="0 0 460.000000 460.000000"
 preserveAspectRatio="xMidYMid meet">

<g transform="translate(0.000000,460.000000) scale(0.100000,-0.100000)"
fill="#000000" stroke="none">
<path d="M0 2300 l0 -2300 2300 0 2300 0 0 2300 0 2300 -2300 0 -2300 0 0
-2300z m2100 1085 c0 -88 1 -95 20 -95 16 0 20 -7 20 -30 l0 -31 58 3 c54 3
57 4 60 31 2 19 9 27 23 27 17 0 19 8 19 95 0 88 1 95 20 95 19 0 20 -7 20
-90 0 -87 1 -91 25 -100 18 -7 25 -17 25 -35 0 -24 3 -25 55 -25 54 0 55 0 55
29 0 23 5 30 23 33 21 3 22 8 25 96 2 82 5 93 20 90 14 -3 17 -18 20 -96 3
-84 4 -92 23 -92 14 0 21 -9 25 -29 5 -23 13 -30 40 -35 48 -9 94 -59 94 -101
0 -31 3 -34 33 -37 17 -2 33 -9 33 -15 1 -7 2 -17 3 -23 0 -6 39 -10 91 -10
83 0 90 -1 90 -20 0 -19 -7 -20 -90 -20 -82 0 -90 -2 -90 -19 0 -15 -8 -21
-32 -23 -33 -3 -33 -3 -33 -58 0 -53 1 -55 29 -58 18 -2 30 -11 33 -23 5 -17
15 -19 95 -19 87 0 89 -1 86 -22 -3 -22 -8 -23 -89 -26 -75 -2 -88 -5 -92 -22
-3 -11 -15 -20 -33 -22 -27 -3 -29 -6 -32 -55 l-3 -53 30 0 c17 0 31 -4 31 -9
0 -28 35 -43 94 -41 91 3 96 2 96 -20 0 -19 -7 -20 -89 -20 -86 0 -89 -1 -95
-25 -5 -20 -13 -25 -36 -25 -27 0 -30 -3 -30 -33 0 -42 -47 -92 -94 -101 -26
-5 -36 -12 -38 -29 -2 -12 -13 -26 -25 -32 -20 -9 -23 -17 -25 -100 -3 -76 -6
-90 -20 -93 -16 -3 -18 6 -18 92 0 91 -1 95 -22 98 -17 2 -24 11 -26 31 -3 26
-6 27 -57 27 -51 0 -54 -1 -57 -27 -2 -20 -9 -29 -25 -31 -22 -3 -23 -7 -23
-98 0 -86 -2 -95 -17 -92 -15 3 -18 17 -21 96 -2 83 -5 92 -22 92 -13 0 -20 8
-22 28 -3 26 -6 27 -60 30 l-58 3 0 -31 c0 -23 -4 -30 -20 -30 -18 0 -20 -8
-22 -92 -3 -85 -5 -93 -23 -93 -18 0 -20 8 -23 91 -2 82 -5 92 -22 97 -13 3
-20 14 -20 30 0 21 -6 26 -37 32 -51 9 -90 48 -98 96 -6 35 -10 39 -35 39 -22
0 -29 5 -32 23 -3 21 -8 22 -96 25 -89 3 -93 4 -90 24 3 20 8 21 76 19 86 -3
112 4 112 29 0 13 8 20 28 22 25 3 27 6 27 53 0 47 -2 50 -27 53 -20 2 -28 9
-28 22 0 17 -9 20 -92 22 -88 3 -93 4 -96 26 -3 21 -1 22 88 22 83 0 92 2 97
19 3 12 15 21 32 23 25 3 26 6 26 58 0 52 -1 55 -26 58 -17 2 -29 11 -32 23
-5 17 -14 19 -96 19 -84 0 -91 2 -91 20 0 18 8 20 93 22 87 3 92 4 95 26 3 17
10 22 31 22 25 0 29 4 35 39 8 49 46 88 97 96 35 6 39 10 39 36 0 22 5 29 20
29 19 0 20 7 20 95 0 95 0 95 25 95 25 0 25 0 25 -95z m-1275 -1532 c27 -30
35 -96 14 -135 -8 -14 -8 -23 0 -31 6 -6 11 -35 11 -63 0 -45 -4 -56 -27 -74
-22 -17 -38 -20 -96 -18 l-69 3 0 165 c0 91 1 168 1 173 1 4 32 7 71 7 63 0
72 -3 95 -27z m219 -13 c-2 -44 35 -242 47 -255 12 -12 11 -42 -2 -50 -5 -4
-21 -4 -34 -1 -18 5 -25 14 -27 39 -3 29 -6 32 -40 35 -34 3 -38 0 -43 -25
-11 -50 -14 -53 -41 -53 -25 0 -26 2 -21 38 3 20 15 81 26 135 12 53 19 108
15 122 -12 47 0 56 63 53 l58 -3 -1 -35z m186 -55 l35 -89 3 92 3 92 33 0 33
0 -4 -162 c-3 -90 -6 -169 -9 -176 -2 -8 -15 -12 -31 -10 -22 2 -30 12 -46 53
-30 78 -47 115 -54 115 -3 0 -4 -37 -2 -82 l4 -83 -34 0 -33 0 0 165 c0 91 1
169 1 173 1 5 15 7 33 5 31 -3 34 -8 68 -93z m315 64 c33 -40 30 -73 -7 -77
-23 -3 -28 1 -28 18 0 18 -5 21 -37 18 -36 -3 -38 -5 -38 -38 0 -35 1 -35 47
-38 64 -4 88 -34 88 -108 0 -45 -4 -56 -26 -73 -18 -14 -41 -21 -72 -21 -58 0
-92 28 -92 77 0 29 3 33 25 33 18 0 25 -5 25 -19 0 -27 26 -44 55 -37 21 5 25
12 25 46 l0 40 -42 0 c-64 0 -88 28 -88 102 0 79 24 108 91 108 41 0 51 -4 74
-31z m222 -39 c0 -36 9 -101 18 -145 25 -118 25 -130 -5 -130 -20 0 -26 6 -28
27 -4 35 -24 50 -59 46 -24 -2 -29 -9 -33 -38 -4 -31 -8 -35 -35 -35 -37 0
-37 13 -5 130 12 45 22 109 22 148 l0 68 61 -3 62 -3 2 -65z m144 48 c0 -13 0
-78 -1 -145 -1 -123 6 -147 35 -123 8 6 24 10 37 8 18 -2 23 -9 23 -33 l0 -30
-79 0 -78 0 0 165 c0 91 1 168 1 173 1 4 15 7 31 7 24 0 30 -4 31 -22z m391
-5 c18 -17 28 -37 28 -55 0 -24 -4 -28 -30 -28 -23 0 -30 4 -30 20 0 17 -7 20
-40 20 l-40 0 0 -110 c0 -109 0 -110 25 -116 36 -9 55 2 55 31 0 21 5 25 30
25 27 0 30 -3 30 -32 0 -51 -33 -78 -95 -78 -38 0 -60 6 -79 21 -26 20 -26 22
-26 147 0 123 1 127 27 154 38 39 105 40 145 1z m133 -148 l0 -175 -30 0 -30
0 0 175 0 175 30 0 30 0 0 -175z m219 151 c23 -21 26 -31 26 -95 0 -41 -4 -71
-10 -71 -15 0 -12 -45 6 -90 21 -53 14 -70 -31 -70 -35 0 -35 0 -34 43 3 63
-8 87 -38 87 -24 0 -25 -1 -21 -62 l3 -63 -34 0 -33 0 0 165 c0 91 1 168 1
173 1 4 32 7 70 7 60 0 74 -4 95 -24z m238 -3 c18 -17 28 -37 28 -55 0 -24 -4
-28 -30 -28 -23 0 -30 4 -30 20 0 17 -7 20 -39 20 -38 0 -38 0 -45 -46 -9 -70
-7 -143 4 -165 19 -34 80 -21 80 17 0 20 5 24 30 24 27 0 30 -3 30 -34 0 -48
-37 -76 -100 -76 -33 0 -55 6 -74 21 -26 20 -26 22 -26 147 0 123 1 127 27
154 38 39 105 40 145 1z m131 -111 c-5 -121 -4 -139 11 -151 13 -11 24 -12 44
-5 l27 10 -1 109 c-1 61 -4 124 -5 140 -4 29 -3 30 36 30 39 0 40 -1 37 -30
-2 -16 -6 -86 -8 -155 -5 -149 -12 -160 -100 -160 -41 0 -59 5 -78 23 -24 21
-25 26 -27 167 -1 80 -1 148 0 153 0 4 16 7 35 7 l34 0 -5 -138z m262 -37 l0
-175 -35 0 -35 0 0 175 0 175 35 0 35 0 0 -175z m245 140 c0 -34 -1 -35 -41
-35 l-42 0 5 -140 5 -140 -32 0 -32 0 5 140 5 140 -42 0 c-38 0 -41 2 -41 28
0 16 3 32 7 35 3 4 51 7 105 7 l98 0 0 -35z m211 6 c25 -26 29 -37 29 -87 0
-39 -5 -63 -16 -75 -15 -17 -15 -22 0 -68 25 -78 22 -91 -19 -91 -34 0 -35 1
-35 43 0 70 -8 87 -42 87 l-30 0 7 -65 7 -65 -34 0 -33 0 0 175 0 175 68 0
c62 0 71 -3 98 -29z m122 -26 c10 -27 22 -54 27 -59 4 -4 18 19 30 53 19 51
26 61 46 61 19 0 24 -5 24 -25 0 -14 -4 -33 -10 -43 -34 -61 -55 -141 -53
-210 l2 -73 -36 3 c-28 2 -37 8 -39 25 -2 12 1 25 6 28 6 3 10 17 10 30 0 28
-47 175 -61 190 -5 5 -9 24 -9 43 0 29 3 33 22 30 17 -2 27 -16 41 -53z
m-2899 -407 c3 -7 7 -30 10 -51 4 -33 3 -37 -9 -27 -12 10 -19 10 -32 -1 -15
-12 -16 -12 -10 3 3 9 9 33 13 52 6 36 21 48 28 24z m149 -12 c2 18 5 8 6 -23
1 -54 -11 -70 -24 -30 l-7 22 -8 -25 c-6 -19 -8 -13 -9 30 l-1 55 19 -29 19
-29 5 29z m237 12 c0 -4 -7 -8 -15 -8 -18 0 -19 -12 -3 -28 9 -9 9 -12 0 -12
-22 0 -13 -29 11 -33 19 -4 18 -4 -5 -6 -27 -1 -28 1 -28 48 0 44 2 50 20 48
11 -1 20 -5 20 -9z m120 -24 c0 -8 5 -14 11 -14 6 0 9 9 6 20 -3 11 -1 23 4
26 5 3 9 -18 9 -45 0 -55 -10 -65 -28 -28 l-11 22 0 -22 c-2 -47 -21 -21 -21
28 0 45 2 50 15 39 8 -7 15 -19 15 -26z m154 30 c23 -9 20 -23 -4 -17 -17 5
-20 0 -20 -31 0 -26 4 -36 16 -36 11 0 15 6 11 20 -3 11 -1 20 4 20 5 0 9 -11
9 -25 0 -20 -5 -25 -25 -25 -23 0 -25 4 -25 43 0 54 6 62 34 51z m123 -49 c-2
-62 -17 -57 -17 6 0 28 4 48 9 44 5 -3 9 -26 8 -50z m143 5 c0 -54 -10 -64
-28 -27 l-11 22 0 -22 c-2 -44 -21 -23 -21 22 0 46 17 62 27 25 7 -28 23 -25
23 5 0 14 2 25 5 25 3 0 5 -22 5 -50z m140 40 c0 -5 -9 -10 -20 -10 -25 0 -26
-16 -2 -29 16 -10 16 -10 0 -11 -26 0 -22 -28 5 -33 19 -4 18 -4 -5 -6 -27 -1
-28 1 -28 49 0 47 2 50 25 50 14 0 25 -4 25 -10z m125 0 c3 -5 -1 -10 -9 -10
-19 0 -22 -30 -3 -31 10 0 10 -2 0 -6 -19 -7 -16 -31 5 -36 11 -3 9 -5 -8 -6
-24 -1 -25 2 -23 46 1 27 2 49 2 51 2 7 31 1 36 -8z m141 -45 c1 -27 -1 -42
-3 -32 -3 9 -11 17 -18 17 -7 0 -16 -8 -18 -17 -3 -10 -5 6 -6 35 -1 50 0 53
22 50 19 -3 22 -9 23 -53z m233 41 c10 -12 8 -13 -8 -9 -14 4 -21 1 -21 -10 0
-8 9 -17 21 -20 28 -7 21 -41 -9 -45 -12 -2 -22 1 -22 6 0 6 9 8 20 5 13 -4
20 0 20 10 0 8 -9 17 -20 20 -11 3 -20 14 -20 24 0 34 19 43 39 19z m241 -6
c0 -5 -9 -6 -21 -3 -18 5 -20 2 -17 -28 2 -25 8 -34 21 -33 9 1 17 -2 17 -7 0
-5 -11 -9 -25 -9 -22 0 -25 4 -25 38 0 21 5 43 11 49 12 12 39 7 39 -7z m137
8 c11 -17 12 -88 1 -88 -4 0 -8 7 -8 15 0 8 -4 15 -10 15 -5 0 -10 -7 -10 -15
0 -8 -4 -15 -10 -15 -11 0 -14 83 -3 93 10 11 31 8 40 -5z m143 2 c0 -5 -7
-10 -15 -10 -18 0 -20 -30 -2 -31 10 0 10 -2 0 -6 -19 -7 -16 -31 5 -36 11 -3
9 -5 -8 -6 -24 -1 -25 2 -23 46 1 27 2 49 2 51 2 7 41 0 41 -8z m130 -17 c0
-16 3 -39 5 -53 3 -14 3 -19 -1 -12 -7 14 -34 16 -34 2 0 -5 -4 -10 -10 -10
-6 0 -6 9 0 26 6 14 10 36 10 50 0 15 6 24 15 24 10 0 15 -10 15 -27z m145 17
c3 -5 1 -10 -4 -10 -6 0 -11 -18 -11 -40 0 -22 -3 -40 -8 -40 -4 0 -6 18 -4
40 3 25 0 40 -7 40 -6 0 -11 5 -11 10 0 6 9 10 19 10 11 0 23 -4 26 -10z m243
-2 c7 -7 12 -29 12 -51 0 -36 -2 -38 -27 -35 -24 2 -29 8 -31 36 -3 31 11 62
27 62 4 0 12 -5 19 -12z m145 -17 c2 13 5 3 6 -23 0 -27 -3 -48 -9 -48 -5 0
-10 9 -10 20 0 27 -18 25 -23 -2 -2 -13 -5 2 -6 32 l-1 55 19 -29 19 -29 5 24z
m-280 -28 c3 -24 1 -43 -4 -43 -5 0 -9 21 -9 47 0 56 5 54 13 -4z"/>
<path d="M1955 3178 c-44 -25 -44 -27 -45 -401 l0 -358 25 -24 24 -25 365 0
365 0 20 26 c20 26 21 38 21 375 0 234 -4 356 -11 372 -6 14 -22 30 -36 36
-34 16 -700 15 -728 -1z m654 -112 c20 -19 21 -27 21 -288 0 -255 -1 -269 -20
-288 -19 -19 -33 -20 -290 -20 -264 0 -270 0 -290 22 -19 21 -20 34 -20 281 0
269 3 291 43 307 12 5 137 8 278 7 237 -2 259 -3 278 -21z"/>
<path d="M2057 3033 c-13 -12 -8 -498 5 -511 19 -19 501 -17 517 2 8 9 11 87
9 262 l-3 249 -261 3 c-143 1 -263 -1 -267 -5z"/>
<path d="M720 1770 c0 -33 3 -40 19 -40 38 0 51 11 51 46 0 32 -2 34 -35 34
-34 0 -35 -1 -35 -40z"/>
<path d="M722 1628 c3 -40 5 -43 33 -43 28 0 30 2 30 40 0 38 -2 40 -33 43
l-33 3 3 -43z"/>
<path d="M977 1749 c-14 -49 -8 -79 13 -79 19 0 20 4 14 38 -10 55 -20 69 -27
41z"/>
<path d="M1696 1759 c-2 -8 -7 -31 -11 -51 -5 -35 -4 -38 18 -38 24 0 24 2 16
47 -10 51 -16 63 -23 42z"/>
<path d="M2550 1765 c0 -52 16 -65 56 -46 21 9 25 17 22 49 -3 35 -5 37 -40
40 l-38 3 0 -46z"/>
<path d="M3630 1766 c0 -38 3 -45 24 -50 42 -10 56 2 56 50 l0 44 -40 0 -40 0
0 -44z"/>
<path d="M940 1380 c0 -5 5 -10 10 -10 6 0 10 5 10 10 0 6 -4 10 -10 10 -5 0
-10 -4 -10 -10z"/>
<path d="M2260 1395 c0 -8 7 -15 15 -15 8 0 15 7 15 15 0 8 -7 15 -15 15 -8 0
-15 -7 -15 -15z"/>
<path d="M2880 1395 c0 -8 5 -15 10 -15 6 0 10 7 10 15 0 8 -4 15 -10 15 -5 0
-10 -7 -10 -15z"/>
<path d="M3161 1374 c0 -11 3 -14 6 -6 3 7 2 16 -1 19 -3 4 -6 -2 -5 -13z"/>
<path d="M3534 1396 c-9 -24 0 -51 19 -54 14 -3 17 4 17 32 0 26 -4 36 -15 36
-9 0 -18 -6 -21 -14z"/>
</g>
</svg>
